<svg width="655" height="255" viewBox="0 0 655 255" fill="none" xmlns="http://www.w3.org/2000/svg">
<path d="M303.367 131.378C303.367 131.378 304.464 150.62 290.924 150.418L290.085 157.363L272.778 155.266L276.876 121.419L302.595 119.631L303.367 131.378Z" fill="#FFCEC8"/>
<path d="M270.793 135.12C270.694 135.983 270.853 136.856 271.249 137.628C271.645 138.4 272.262 139.038 273.02 139.461C273.779 139.883 274.645 140.071 275.511 140.001C276.376 139.932 277.201 139.607 277.882 139.069C278.563 138.53 279.07 137.802 279.337 136.976C279.604 136.15 279.621 135.263 279.385 134.428C279.149 133.592 278.67 132.846 278.01 132.282C277.35 131.718 276.537 131.363 275.675 131.26C274.516 131.126 273.351 131.457 272.436 132.181C271.521 132.905 270.93 133.962 270.793 135.12Z" fill="#FFCEC8"/>
<path d="M290.924 150.419C290.924 150.419 284.839 149.628 280.94 145.507C280.94 145.507 282.101 150.983 290.595 153.137L290.924 150.419Z" fill="#FFB1A8"/>
<path d="M296.82 121.846C296.82 121.846 291.084 133.846 276.193 131.442C276.193 131.442 273.674 130.362 271.935 133.279C271.935 133.279 259.356 124.564 265.34 106.921C265.34 106.921 289.895 82.3411 306.222 105.418C306.487 105.705 306.733 106.009 306.959 106.327C310.048 110.526 310.281 116.188 307.74 120.741L307.219 121.674C307.219 121.674 312.683 130.774 303.536 133.141C303.538 133.141 297.611 128.643 296.82 121.846Z" fill="#FF7867"/>
<path d="M265.335 106.916C265.335 106.916 255.97 111.714 249.936 104.461C248.859 103.164 248.463 100.028 249.244 98.5256C249.774 97.4869 250.882 96.539 253.099 96.2615C253.099 96.2615 249.548 94.8693 249.976 88.529C250.442 81.6044 255.321 75.8167 261.897 73.6018C267.791 71.6128 275.648 71.2739 282.585 78.6087C282.585 78.6087 289.272 86.3559 283.17 96.3598C283.17 96.3573 272.125 100.93 265.335 106.916Z" fill="#FF7867"/>
<path d="M282.571 96.7723C286.146 94.8668 290.001 94.2578 293.802 94.5795C297.604 94.9012 301.326 96.1707 305.14 97.5261C301.979 94.8451 298.077 93.1896 293.952 92.7796C291.86 92.6004 289.752 92.8375 287.752 93.4769C285.77 94.1326 283.909 95.2302 282.571 96.7723Z" fill="#FF7867"/>
<path d="M283.477 96.4604C285.552 95.015 287.289 93.1367 288.567 90.9551C289.795 88.7623 290.61 86.0784 289.989 83.5541C289.219 85.82 288.221 88.0019 287.011 90.0662C285.866 92.1166 284.474 94.1007 283.477 96.4604ZM292.68 131.278C292.408 131.614 291.259 131.155 289.999 131.295C288.734 131.359 287.674 131.995 287.349 131.705C286.988 131.459 287.917 129.861 289.871 129.699C291.826 129.537 292.997 130.98 292.68 131.278ZM300.759 132.662C300.403 132.908 299.421 132.171 298.171 131.958C296.943 131.68 295.742 132.007 295.509 131.641C295.229 131.3 296.55 130.018 298.475 130.389C300.401 130.759 301.145 132.454 300.759 132.662Z" fill="#FF7867"/>
<path d="M298.433 135.435C298.375 136.309 297.878 136.989 297.326 136.95C296.773 136.911 296.371 136.174 296.432 135.3C296.494 134.426 296.987 133.745 297.54 133.785C298.092 133.824 298.495 134.561 298.433 135.435ZM290.946 134.926C290.888 135.801 290.389 136.478 289.837 136.442C289.284 136.405 288.884 135.666 288.943 134.789C289.002 133.912 289.498 133.237 290.053 133.276C290.608 133.316 291.005 134.052 290.946 134.926Z" fill="#454545"/>
<path d="M293.537 142.932C293.459 142.925 293.386 142.891 293.331 142.836C293.276 142.781 293.242 142.708 293.235 142.63C293.228 142.552 293.249 142.475 293.294 142.411C293.339 142.347 293.405 142.301 293.48 142.281C294.293 142.082 295.528 141.581 295.602 141.137C295.629 140.974 295.435 140.749 295.074 140.52C292.68 139.01 293.431 134.848 293.463 134.671C293.483 134.588 293.534 134.516 293.606 134.47C293.677 134.424 293.763 134.407 293.847 134.423C293.931 134.438 294.005 134.486 294.055 134.555C294.104 134.624 294.126 134.71 294.114 134.794C294.114 134.833 293.414 138.688 295.428 139.951C296.051 140.346 296.331 140.776 296.255 141.235C296.086 142.269 294.045 142.814 293.638 142.914C293.605 142.925 293.571 142.931 293.537 142.932Z" fill="#FF7867"/>
<path d="M288.658 144.24C288.584 146.109 289.886 147.698 291.604 147.816C293.323 147.934 294.816 146.531 294.996 144.67L288.658 144.24Z" fill="white"/>
<path d="M294.799 145.534C294.893 145.256 294.954 144.967 294.983 144.675L288.658 144.24C288.646 144.533 288.669 144.827 288.727 145.115L294.799 145.534Z" fill="white"/>
<path d="M349.747 171.951L348.907 178.365L341.533 176.575L342.582 170.154L349.747 171.951Z" fill="#FFCEC8"/>
<path d="M339.581 155.207C340.359 154.89 341.258 155.325 341.693 156.236L344.104 159.919L347.589 147.715C347.736 147.18 348.234 146.932 348.689 147.194C348.877 147.325 349.023 147.508 349.11 147.72C349.197 147.932 349.221 148.165 349.18 148.39L347.756 157.161L352.126 147.911C352.166 147.806 352.229 147.712 352.312 147.637C352.395 147.562 352.495 147.508 352.603 147.479C352.712 147.451 352.825 147.448 352.934 147.473C353.044 147.497 353.146 147.547 353.231 147.619C353.421 147.784 353.554 148.004 353.611 148.249C353.669 148.494 353.647 148.75 353.551 148.982L353.521 149.066C353.541 149.043 349.553 158.293 349.553 158.293L354.007 150.588C354.044 150.516 354.094 150.451 354.156 150.399C354.217 150.346 354.289 150.307 354.366 150.282C354.443 150.258 354.524 150.249 354.605 150.256C354.685 150.264 354.764 150.287 354.835 150.325C355.037 150.448 355.188 150.641 355.26 150.866C355.331 151.092 355.319 151.336 355.225 151.553L351.67 160.044L356.254 154.777C356.532 154.473 356.775 154.392 357.089 154.696C357.156 154.76 357.212 154.835 357.254 154.917C357.331 155.084 357.368 155.266 357.36 155.45C357.353 155.634 357.302 155.813 357.212 155.973L349.759 171.959L342.592 170.161C342.592 170.161 342.233 168.398 341.953 165.417C341.673 162.436 339.581 155.207 339.581 155.207Z" fill="#FFCEC8"/>
<path d="M292.391 254.993L294.569 155.966L270.698 152.678L269.836 254.993H292.391Z" fill="#FF7867"/>
<path d="M214.992 251.002L224.394 238.97L213.381 213.209L246.995 185.032L250.096 215.706C250.096 215.706 233.443 227.196 227.193 254.995H269.836L270.698 152.68L255.071 149.888C253.171 149.555 251.224 149.606 249.344 150.038C247.464 150.469 245.689 151.272 244.124 152.4C233.492 159.899 211.519 178.382 198.539 198.886C196.938 201.413 195.22 207.328 195.22 207.328C194.12 212.969 194.955 218.815 197.589 223.923L214.992 251.002Z" fill="#B4B3FF"/>
<path d="M246.995 185.341C246.952 185.341 246.909 185.332 246.87 185.314C246.831 185.296 246.795 185.27 246.767 185.238C246.74 185.208 246.719 185.173 246.706 185.136C246.693 185.098 246.688 185.058 246.69 185.018C246.693 184.978 246.703 184.938 246.721 184.903C246.739 184.867 246.763 184.835 246.794 184.808C246.853 184.754 252.687 179.485 252.12 170.048C252.115 169.968 252.142 169.889 252.196 169.828C252.249 169.768 252.324 169.731 252.404 169.726C252.445 169.723 252.485 169.727 252.523 169.74C252.562 169.752 252.597 169.773 252.627 169.799C252.657 169.826 252.681 169.859 252.699 169.895C252.716 169.931 252.725 169.971 252.726 170.011C253.311 179.757 247.258 185.211 247.196 185.265C247.141 185.314 247.069 185.341 246.995 185.341Z" fill="#333333"/>
<path d="M279.865 254.654C279.834 254.653 279.803 254.647 279.774 254.637C278.662 254.182 278.391 252.08 278.971 248.382C278.971 248.338 279.632 244.53 280.128 243.442C280.047 243.314 279.938 243.172 279.823 243.017C279.393 242.44 278.804 241.649 278.804 240.834C282.087 224.939 281.726 209.762 281.377 195.082C281.097 183.296 280.808 171.089 282.421 158.676C282.442 158.627 282.479 158.586 282.525 158.559C282.572 158.533 282.626 158.522 282.679 158.529C282.732 158.536 282.781 158.56 282.82 158.598C282.858 158.636 282.882 158.685 282.89 158.738C281.279 171.114 281.571 183.293 281.851 195.08C282.2 209.786 282.561 224.991 279.271 240.893C279.271 241.502 279.789 242.192 280.201 242.744C280.351 242.946 280.486 243.127 280.579 243.282C280.589 243.298 280.597 243.316 280.601 243.334C280.613 243.373 280.614 243.415 280.605 243.456C280.596 243.496 280.577 243.534 280.55 243.565C280.275 244.235 278.507 251.11 279.396 253.514C279.435 253.663 279.504 253.802 279.6 253.921C279.696 254.041 279.817 254.139 279.953 254.209C280.01 254.235 280.054 254.28 280.078 254.337C280.102 254.394 280.104 254.458 280.083 254.516C280.063 254.557 280.032 254.592 279.994 254.616C279.955 254.64 279.91 254.653 279.865 254.654ZM281.323 168.617C281.323 168.896 281.241 169.169 281.085 169.401C280.93 169.633 280.71 169.814 280.452 169.921C280.194 170.028 279.91 170.056 279.636 170.001C279.362 169.947 279.111 169.812 278.913 169.615C278.716 169.417 278.581 169.166 278.527 168.892C278.472 168.618 278.5 168.334 278.607 168.076C278.714 167.818 278.895 167.598 279.127 167.443C279.359 167.287 279.632 167.205 279.911 167.205C280.286 167.205 280.645 167.353 280.91 167.618C281.175 167.883 281.323 168.242 281.323 168.617Z" fill="white"/>
<path d="M280.725 198.574C280.724 198.853 280.641 199.126 280.485 199.358C280.33 199.59 280.109 199.77 279.851 199.877C279.593 199.983 279.309 200.011 279.036 199.956C278.762 199.901 278.511 199.767 278.313 199.569C278.116 199.372 277.982 199.12 277.928 198.846C277.873 198.572 277.902 198.289 278.008 198.031C278.115 197.773 278.296 197.553 278.528 197.398C278.761 197.242 279.034 197.16 279.313 197.16C279.498 197.16 279.682 197.196 279.854 197.267C280.025 197.339 280.181 197.443 280.312 197.574C280.443 197.706 280.547 197.861 280.618 198.033C280.689 198.205 280.725 198.388 280.725 198.574ZM279.902 230.265C279.902 230.545 279.819 230.818 279.664 231.05C279.509 231.282 279.288 231.463 279.03 231.57C278.772 231.677 278.489 231.705 278.215 231.65C277.941 231.596 277.689 231.461 277.492 231.264C277.294 231.066 277.16 230.815 277.105 230.541C277.051 230.267 277.079 229.983 277.186 229.725C277.292 229.467 277.473 229.247 277.706 229.091C277.938 228.936 278.211 228.853 278.49 228.853C278.865 228.853 279.224 229.002 279.488 229.267C279.753 229.532 279.902 229.891 279.902 230.265Z" fill="white"/>
<path d="M227.191 254.985L229.172 248.39L233.273 250.943C233.384 251.01 233.516 251.032 233.642 251.005C233.769 250.979 233.881 250.905 233.955 250.8C234.03 250.694 234.062 250.565 234.046 250.437C234.029 250.308 233.964 250.191 233.865 250.109L229.713 246.791C229.65 246.74 229.606 246.671 229.587 246.593C229.568 246.515 229.575 246.433 229.607 246.359C229.627 246.313 229.657 246.272 229.694 246.238C229.731 246.204 229.775 246.178 229.822 246.162C229.87 246.146 229.92 246.14 229.97 246.144C230.02 246.148 230.069 246.163 230.113 246.187L234.57 248.643C234.679 248.704 234.808 248.723 234.931 248.696C235.053 248.669 235.162 248.597 235.235 248.495C235.308 248.393 235.341 248.267 235.328 248.142C235.314 248.017 235.255 247.902 235.161 247.818L230.741 243.754C230.668 243.686 230.622 243.593 230.613 243.493C230.603 243.394 230.631 243.294 230.69 243.214C230.749 243.133 230.836 243.077 230.933 243.056C231.031 243.035 231.133 243.051 231.22 243.1L235.994 245.883C236.137 245.963 236.304 245.988 236.465 245.953C236.625 245.917 236.766 245.823 236.861 245.69C236.956 245.556 236.998 245.391 236.979 245.228C236.96 245.065 236.881 244.915 236.758 244.807L232.554 241.234C232.542 241.224 232.535 241.209 232.533 241.194C232.53 241.178 232.534 241.162 232.542 241.149C232.55 241.135 232.562 241.125 232.577 241.12C232.591 241.114 232.607 241.114 232.622 241.119L237.175 242.769C237.313 242.822 237.467 242.82 237.603 242.762C237.74 242.705 237.849 242.597 237.908 242.461C237.967 242.325 237.971 242.172 237.92 242.033C237.868 241.894 237.765 241.78 237.632 241.716L231.377 238.523C231.18 238.418 230.963 238.354 230.739 238.335C230.516 238.316 230.291 238.342 230.079 238.412C229.866 238.482 229.67 238.595 229.502 238.743C229.334 238.892 229.197 239.072 229.101 239.275L226.093 245.635L222.83 240.969L217.725 247.523L225.909 254.985H227.191Z" fill="#FFCEC8"/>
<path d="M319.664 254.985C316.121 234.152 307.877 221.222 307.877 221.222L311.755 207.318L324.963 222.349C329.307 227.297 335.811 228.851 341.538 226.312C347.046 223.871 350.852 218.079 351.36 211.377L352.649 173.758L339.65 169.211L332.889 200.043L312.774 167.077C311.223 164.537 308.949 162.518 306.242 161.282L294.568 155.956L292.39 254.985H319.664Z" fill="#B4B3FF"/>
<path d="M311.752 207.63C311.707 207.63 311.662 207.62 311.62 207.6C311.579 207.58 311.543 207.552 311.515 207.516C311.486 207.481 311.466 207.439 311.456 207.395C311.445 207.35 311.445 207.304 311.455 207.259C311.497 207.078 315.45 188.747 310.294 166.569C310.275 166.49 310.289 166.407 310.332 166.338C310.375 166.27 310.443 166.221 310.522 166.203C310.601 166.185 310.684 166.198 310.752 166.241C310.821 166.284 310.87 166.352 310.888 166.431C316.076 188.75 312.091 207.208 312.049 207.392C312.034 207.46 311.997 207.52 311.943 207.563C311.889 207.607 311.821 207.63 311.752 207.63ZM331.723 208.733H331.681C331.604 208.719 331.534 208.675 331.488 208.611C331.443 208.547 331.424 208.467 331.436 208.389L332.597 200.003C332.602 199.963 332.614 199.924 332.634 199.889C332.654 199.854 332.681 199.824 332.713 199.799C332.745 199.775 332.782 199.757 332.821 199.748C332.861 199.738 332.901 199.736 332.941 199.743C333.021 199.755 333.093 199.797 333.142 199.861C333.19 199.926 333.212 200.007 333.201 200.087L332.037 208.472C332.027 208.547 331.989 208.616 331.931 208.664C331.873 208.712 331.799 208.737 331.723 208.733ZM352.369 182.579C352.338 182.578 352.308 182.573 352.278 182.564L339.487 178.635C339.449 178.624 339.413 178.605 339.382 178.579C339.351 178.554 339.326 178.522 339.307 178.487C339.288 178.452 339.277 178.413 339.273 178.373C339.27 178.333 339.274 178.293 339.286 178.255C339.31 178.178 339.364 178.114 339.435 178.076C339.506 178.038 339.59 178.03 339.667 178.053L352.458 181.982C352.496 181.994 352.532 182.013 352.563 182.038C352.594 182.063 352.62 182.095 352.639 182.13C352.658 182.165 352.669 182.204 352.673 182.244C352.677 182.284 352.673 182.324 352.661 182.363C352.642 182.425 352.603 182.479 352.55 182.518C352.498 182.557 352.435 182.578 352.369 182.579ZM349.599 179.249C349.259 179.249 348.927 179.148 348.644 178.959C348.362 178.77 348.141 178.502 348.011 178.188C347.881 177.874 347.847 177.528 347.914 177.195C347.98 176.861 348.144 176.555 348.384 176.315C348.624 176.074 348.931 175.911 349.264 175.844C349.598 175.778 349.943 175.812 350.257 175.942C350.571 176.072 350.84 176.293 351.029 176.575C351.217 176.858 351.318 177.19 351.318 177.53C351.318 177.986 351.137 178.423 350.815 178.746C350.492 179.068 350.055 179.249 349.599 179.249ZM349.599 176.425C349.381 176.426 349.167 176.491 348.985 176.613C348.803 176.735 348.661 176.908 348.578 177.111C348.495 177.313 348.473 177.536 348.516 177.75C348.559 177.965 348.665 178.162 348.82 178.317C348.975 178.471 349.172 178.576 349.387 178.619C349.601 178.662 349.824 178.639 350.026 178.556C350.228 178.472 350.401 178.33 350.523 178.148C350.644 177.966 350.709 177.752 350.709 177.533C350.709 177.239 350.591 176.957 350.383 176.749C350.175 176.542 349.893 176.425 349.599 176.425ZM215.183 246.479C214.843 246.479 214.511 246.379 214.228 246.19C213.945 246.001 213.725 245.732 213.595 245.418C213.465 245.104 213.431 244.759 213.497 244.425C213.564 244.092 213.727 243.785 213.968 243.545C214.208 243.305 214.514 243.141 214.848 243.075C215.181 243.008 215.527 243.042 215.841 243.172C216.155 243.302 216.423 243.523 216.612 243.805C216.801 244.088 216.902 244.42 216.902 244.76C216.902 245.216 216.721 245.653 216.399 245.976C216.076 246.298 215.639 246.479 215.183 246.479ZM215.183 243.655C214.964 243.655 214.75 243.72 214.568 243.842C214.386 243.964 214.244 244.137 214.16 244.339C214.076 244.541 214.054 244.764 214.097 244.979C214.14 245.194 214.245 245.391 214.4 245.546C214.555 245.701 214.752 245.806 214.967 245.849C215.182 245.892 215.405 245.87 215.607 245.786C215.809 245.702 215.982 245.56 216.104 245.378C216.226 245.196 216.291 244.982 216.291 244.763C216.291 244.469 216.174 244.187 215.966 243.98C215.758 243.772 215.477 243.655 215.183 243.655ZM211.966 242.759C211.893 242.759 211.823 242.733 211.767 242.686C211.706 242.633 211.669 242.558 211.662 242.478C211.656 242.397 211.681 242.318 211.733 242.256L220.993 231.478C221.046 231.417 221.121 231.379 221.202 231.373C221.282 231.366 221.362 231.393 221.424 231.445C221.485 231.498 221.523 231.573 221.53 231.654C221.536 231.735 221.51 231.815 221.457 231.876L212.197 242.654C212.168 242.687 212.133 242.713 212.093 242.731C212.053 242.749 212.01 242.759 211.966 242.759Z" fill="#333333"/>
<path d="M276.768 163.011C276.722 163.011 276.676 162.997 276.638 162.971L269.745 158.426C269.71 158.386 269.689 158.335 269.685 158.281C269.681 158.227 269.695 158.174 269.725 158.129C269.755 158.084 269.798 158.051 269.849 158.033C269.899 158.015 269.954 158.014 270.006 158.031L276.758 162.485L282.369 158.269C282.394 158.25 282.422 158.236 282.452 158.228C282.482 158.22 282.513 158.218 282.544 158.222C282.574 158.227 282.604 158.237 282.63 158.253C282.657 158.269 282.68 158.29 282.698 158.316C282.733 158.366 282.748 158.428 282.739 158.489C282.73 158.55 282.699 158.606 282.652 158.645L276.903 162.964C276.864 162.992 276.817 163.009 276.768 163.011Z" fill="white"/>
<path d="M287.295 163.654C287.262 163.653 287.229 163.646 287.199 163.633C287.168 163.619 287.141 163.6 287.118 163.575L282.698 158.613C282.659 158.565 282.64 158.504 282.643 158.443C282.647 158.382 282.674 158.324 282.718 158.281C282.765 158.241 282.826 158.221 282.888 158.224C282.95 158.227 283.009 158.254 283.052 158.298L287.364 163.148L295.293 160.26C295.345 160.257 295.398 160.271 295.442 160.3C295.487 160.329 295.52 160.371 295.539 160.421C295.557 160.471 295.559 160.525 295.543 160.575C295.528 160.626 295.497 160.671 295.455 160.702L287.376 163.649C287.349 163.655 287.322 163.657 287.295 163.654Z" fill="white"/>
<path d="M272.95 152.962L281.674 157.08L290.298 155.384L282.087 151.482L272.95 152.962Z" fill="#FFCEC8"/>
<path d="M294.569 155.966L290.689 152.378L290.298 155.384L292.933 156.494L294.569 155.966ZM273.424 149.785L273.053 153.203L270.698 152.678L273.424 149.785Z" fill="#FF7867"/>
<path d="M103.67 254.985L103.576 254.85L107.137 228.88C91.9715 234.396 75.1953 253.701 75.1953 253.701C74.8441 254.131 74.5249 254.558 74.1885 254.985H103.67Z" fill="#333333"/>
<path d="M122.654 152.931L123.179 154.131L125.522 159.482L141.269 162.708L150.107 150.409L148.245 146.023L147.818 145.004L122.654 152.931Z" fill="#FFD3CF"/>
<path d="M231.005 38.9517C231.005 38.9517 221.008 25.3922 205.958 32.8619C205.956 32.8619 217.101 48.8328 231.005 38.9517Z" fill="#545ED7"/>
<path d="M226.776 32.0958L223.896 40.1402L212.679 36.4028L215.891 28.3879L226.776 32.0958Z" fill="#FFCEC8"/>
<path d="M103.215 254.985H171.052C185.947 187.642 151.835 148.506 151.835 148.506L148.446 146.524L150.111 150.401L141.271 162.696L125.529 159.479L122.658 152.928L119.088 156.273L105.3 219.702C105.3 219.702 109.207 230.96 103.23 239.464C97.2533 247.967 98.8764 253.247 98.8764 253.247L103.215 254.985ZM11.7661 103.643C11.7661 103.643 21.878 91.2326 34.9783 97.2069L24.4072 108.699L11.7661 103.643Z" fill="#545ED7"/>
<path d="M16.0361 99.66L18.9189 107.704L30.1334 103.967L26.9215 95.9521L16.0361 99.66Z" fill="#FFCEC8"/>
<path d="M28.0391 76.2391C27.4052 76.1162 26.7483 76.2213 26.1844 76.5358C25.6205 76.8503 25.1859 77.354 24.9574 77.9579L22.0377 83.1538L13.5808 68.2192C13.4934 68.0616 13.3743 67.9239 13.2308 67.8147C13.0874 67.7055 12.9229 67.6274 12.7477 67.5851C12.5725 67.5429 12.3904 67.5375 12.213 67.5693C12.0356 67.6011 11.8667 67.6694 11.7171 67.7699C11.466 67.9468 11.2827 68.204 11.1974 68.499C11.1122 68.7941 11.13 69.1094 11.2481 69.393L15.6337 80.3496L6.4794 69.3709C6.37141 69.2398 6.23835 69.1316 6.08802 69.0525C5.93768 68.9735 5.77308 68.9252 5.60387 68.9106C5.43465 68.896 5.26421 68.9152 5.10254 68.9673C4.94086 69.0193 4.7912 69.1031 4.6623 69.2138C4.40881 69.4363 4.24967 69.7471 4.21728 70.0829C4.18489 70.4186 4.28169 70.7541 4.48796 71.021L4.55917 71.1217C4.51988 71.0971 13.0578 82.1495 13.0578 82.1495L4.15155 73.1549C3.97547 72.9768 3.74467 72.8631 3.49619 72.8319C3.24771 72.8007 2.99597 72.854 2.78136 72.983C2.64617 73.0634 2.52947 73.1714 2.43891 73.3C2.34835 73.4286 2.28596 73.5749 2.25582 73.7293C2.22569 73.8836 2.22849 74.0426 2.26405 74.1959C2.2996 74.3491 2.3671 74.4931 2.46214 74.6184L10.1357 84.7892L1.61743 78.9475C1.10422 78.6136 0.699059 78.5571 0.276705 79.0089C0.18801 79.0991 0.117925 79.2059 0.0704399 79.3232C-0.00967836 79.555 -0.02173 79.805 0.0357103 80.0434C0.0931506 80.2819 0.21768 80.4989 0.394571 80.6688L16.0364 99.66L26.9292 95.9521C27.0056 93.886 26.9581 91.8172 26.7867 89.7568C26.497 85.8893 28.0391 76.2391 28.0391 76.2391Z" fill="#FFCEC8"/>
<path d="M168.037 253.478C167.963 253.982 167.887 254.487 167.808 254.993H190.377C197.147 200.079 186.652 167.644 186.652 167.644L231.004 38.9517C230.082 39.3145 229.121 39.5699 228.141 39.7129C224.536 40.2335 221.02 38.6496 218.506 36.0296C213.192 30.4874 205.955 32.8693 205.955 32.8693L154.939 147.651L151.835 148.513C180.791 195.561 168.037 253.478 168.037 253.478ZM43.5875 166.485L100.013 193.496C95.6842 206.523 73.4665 234.359 56.0027 254.985H78.9546C81.7855 251.886 84.8841 249.042 88.2145 246.487C99.3062 237.983 106.219 229.34 106.219 229.34C127.361 200.85 119.088 156.273 119.088 156.273L100.932 161.1L54.2764 140.876L34.9783 97.2069C34.9783 97.2069 30.8408 95.5985 25.3256 101.573C19.8105 107.547 11.7661 103.643 11.7661 103.643L31.769 153.844C33.981 159.392 38.2001 163.905 43.5875 166.485Z" fill="#B4B3FF"/>
<path d="M148.847 168.344C148.797 168.344 148.749 168.328 148.709 168.297L141.127 162.895C141.092 162.881 141.061 162.86 141.036 162.832C141.011 162.805 140.993 162.772 140.982 162.736C140.972 162.7 140.969 162.663 140.976 162.626C140.982 162.589 140.996 162.555 141.018 162.524C141.04 162.494 141.068 162.469 141.101 162.451C141.133 162.434 141.17 162.423 141.207 162.422C141.244 162.42 141.281 162.427 141.315 162.442C141.349 162.457 141.38 162.479 141.404 162.507L148.8 167.774L158.197 155.661C158.237 155.613 158.294 155.581 158.356 155.573C158.418 155.564 158.481 155.58 158.531 155.617C158.58 155.657 158.612 155.714 158.62 155.777C158.627 155.839 158.611 155.903 158.573 155.953L149.036 168.248C149.013 168.277 148.985 168.301 148.952 168.318C148.919 168.334 148.883 168.343 148.847 168.344Z" fill="white"/>
<path d="M138.391 171.214C138.365 171.214 138.34 171.21 138.315 171.202L120.277 165.112C120.23 165.083 120.195 165.039 120.177 164.987C120.159 164.935 120.158 164.879 120.176 164.827C120.193 164.775 120.228 164.73 120.274 164.7C120.32 164.67 120.374 164.656 120.429 164.661L138.244 170.674L141.038 162.625C141.061 162.566 141.104 162.518 141.161 162.491C141.218 162.463 141.283 162.459 141.343 162.478C141.402 162.5 141.45 162.544 141.477 162.6C141.505 162.657 141.509 162.722 141.49 162.782L138.617 171.055C138.6 171.101 138.569 171.141 138.529 171.17C138.489 171.198 138.441 171.214 138.391 171.214Z" fill="white"/>
<path d="M138.36 252.024C138.316 252.023 138.274 252.011 138.237 251.988C138.2 251.966 138.169 251.934 138.148 251.896C138.121 251.84 138.116 251.776 138.134 251.716C138.152 251.656 138.192 251.606 138.247 251.575C139.295 251.01 139.997 248.056 140.675 245.19C141.412 242.123 142.099 239.194 143.32 238.258C142.976 238.145 142.895 238.013 142.875 237.887C142.867 237.818 142.882 237.749 142.918 237.69C142.954 237.63 143.009 237.585 143.074 237.561C143.185 237.518 143.305 237.502 143.423 237.514C143.209 237.197 142.991 236.856 142.767 236.505C142.205 235.621 141.623 234.705 141.048 234.135C141.004 234.09 140.98 234.029 140.98 233.966C140.98 233.903 141.004 233.842 141.048 233.796C144.103 230.744 145.147 226.572 146.156 222.538C147.303 199.515 145.665 180.504 141.031 162.755C141.017 162.694 141.028 162.63 141.06 162.576C141.092 162.522 141.143 162.483 141.203 162.465C141.264 162.452 141.328 162.461 141.381 162.493C141.435 162.524 141.475 162.575 141.493 162.635C146.158 180.433 147.781 199.49 146.625 222.606C145.611 226.678 144.572 230.84 141.549 233.968C142.149 234.684 142.69 235.446 143.167 236.247C143.538 236.858 143.942 237.449 144.378 238.015L144.395 238.035C144.424 238.072 144.442 238.117 144.447 238.164C144.451 238.211 144.442 238.258 144.42 238.3V238.312C144.399 238.338 144.374 238.36 144.346 238.378L144.297 238.396C144.274 238.403 144.249 238.403 144.226 238.396H144.206C142.794 238.396 141.927 242.047 141.161 245.271C140.425 248.37 139.732 251.295 138.495 251.96C138.457 251.995 138.41 252.017 138.36 252.024Z" fill="white"/>
<path d="M139.656 177.066C139.656 177.316 139.73 177.561 139.869 177.769C140.008 177.977 140.205 178.139 140.436 178.234C140.668 178.33 140.922 178.355 141.167 178.306C141.412 178.258 141.638 178.137 141.815 177.96C141.991 177.783 142.112 177.558 142.161 177.313C142.209 177.067 142.184 176.813 142.089 176.582C141.993 176.351 141.831 176.154 141.623 176.015C141.415 175.876 141.17 175.801 140.92 175.801C140.585 175.801 140.263 175.935 140.026 176.172C139.789 176.409 139.656 176.731 139.656 177.066Z" fill="white"/>
<path d="M141.495 200.622C142.193 200.622 142.76 200.056 142.76 199.357C142.76 198.659 142.193 198.093 141.495 198.093C140.797 198.093 140.23 198.659 140.23 199.357C140.23 200.056 140.797 200.622 141.495 200.622Z" fill="white"/>
<path d="M140.805 222.454C141.503 222.454 142.069 221.888 142.069 221.19C142.069 220.491 141.503 219.925 140.805 219.925C140.106 219.925 139.54 220.491 139.54 221.19C139.54 221.888 140.106 222.454 140.805 222.454Z" fill="white"/>
<path d="M134.025 248.422C134.025 248.672 134.099 248.916 134.238 249.124C134.377 249.332 134.574 249.494 134.806 249.59C135.037 249.686 135.291 249.711 135.536 249.662C135.782 249.613 136.007 249.493 136.184 249.316C136.361 249.139 136.481 248.914 136.53 248.668C136.579 248.423 136.554 248.169 136.458 247.938C136.362 247.707 136.2 247.509 135.992 247.37C135.784 247.231 135.54 247.157 135.289 247.157C134.954 247.158 134.633 247.291 134.396 247.528C134.159 247.765 134.026 248.086 134.025 248.422Z" fill="white"/>
<path d="M122.654 152.931L123.179 154.131C125.121 156.022 127.541 157.346 130.18 157.963C132.819 158.58 135.575 158.466 138.154 157.632C140.732 156.798 143.034 155.277 144.813 153.233C146.591 151.188 147.778 148.697 148.245 146.028L147.818 145.009L122.654 152.931Z" fill="#FFB2A9"/>
<path d="M139.012 155.914C140.812 155.144 142.443 154.026 143.811 152.626C145.179 151.225 146.258 149.569 146.986 147.751C147.714 145.933 148.076 143.99 148.053 142.032C148.03 140.075 147.621 138.141 146.851 136.341L140.847 122.317L113.436 134.052L119.439 148.076C120.996 151.71 123.933 154.577 127.603 156.047C131.274 157.517 135.377 157.469 139.012 155.914Z" fill="#FFD3CF"/>
<path d="M144.965 137.451C146.136 139.771 146.959 141.716 149.279 140.545C151.6 139.373 154.541 135.528 153.37 133.208C153.092 132.656 152.707 132.164 152.238 131.761C151.77 131.358 151.226 131.051 150.639 130.857C150.052 130.664 149.432 130.588 148.816 130.635C148.199 130.681 147.598 130.848 147.046 131.127C146.494 131.405 146.002 131.79 145.599 132.258C145.196 132.727 144.889 133.27 144.696 133.858C144.502 134.445 144.427 135.065 144.473 135.681C144.519 136.298 144.686 136.899 144.965 137.451ZM121.608 146.964C122.344 149.456 123.096 151.433 120.603 152.177C118.111 152.921 113.333 152.152 112.589 149.662C112.23 148.466 112.362 147.177 112.954 146.078C113.547 144.979 114.552 144.16 115.748 143.802C116.944 143.444 118.233 143.575 119.332 144.168C120.431 144.76 121.25 145.765 121.608 146.961V146.964Z" fill="#FFD3CF"/>
<path d="M150.529 130.826C150.529 130.826 152.407 126.475 151.071 121.649C150.298 118.855 147.599 116.945 144.724 117.293L144.596 117.308C144.596 117.308 144.309 107.83 133.853 105.3C123.397 102.771 119.547 115.356 119.547 115.356C118.941 114.891 118.204 114.63 117.441 114.609C116.677 114.589 115.927 114.809 115.297 115.24C115.297 115.24 113.285 116.274 114.147 118.744C114.147 118.744 109.298 115.911 104.551 122.182C98.6922 129.956 112.873 146.617 112.873 146.617C112.873 146.617 113.563 143.285 117.698 143.514L114.54 136.793C114.54 136.793 122.754 138.114 124.306 130.654C124.306 130.654 129.937 135.118 134.646 131.747C139.702 128.127 141.306 134.708 145.262 132.667C145.271 132.658 147.204 129.917 150.529 130.826Z" fill="#B4B3FF"/>
<path d="M231.095 0.217961C231.346 0.394855 231.529 0.65205 231.615 0.947123C231.7 1.2422 231.682 1.55751 231.564 1.84107L227.188 12.7854L236.333 1.81897C236.441 1.68788 236.574 1.57964 236.724 1.50061C236.874 1.42157 237.039 1.37332 237.208 1.35869C237.377 1.34405 237.548 1.36332 237.709 1.41538C237.871 1.46743 238.021 1.5512 238.15 1.66181C238.403 1.88437 238.562 2.19517 238.595 2.53094C238.627 2.8667 238.53 3.20219 238.324 3.4691L238.253 3.57223C238.431 3.45262 238.64 3.38874 238.854 3.38874C239.069 3.38874 239.278 3.45262 239.456 3.57223C239.656 3.71571 239.804 3.9198 239.879 4.15423C239.954 4.38867 239.951 4.64095 239.871 4.87367C237.551 8.82218 234.985 13.2913 232.676 17.2349L241.195 11.3907C241.708 11.0567 242.113 11.0002 242.535 11.4521C242.624 11.5423 242.694 11.6491 242.742 11.7664C242.822 11.9982 242.834 12.2481 242.776 12.4866C242.719 12.7251 242.594 12.9421 242.417 13.112L226.776 32.1032L215.89 28.3953C215.814 26.33 215.861 24.262 216.033 22.2024C216.315 18.3325 214.773 8.68221 214.773 8.68221C215.408 8.56011 216.066 8.66698 216.631 8.98387C217.195 9.30077 217.628 9.8072 217.855 10.4134L220.774 15.6093L229.231 0.674689C229.318 0.516734 229.437 0.378547 229.58 0.268866C229.723 0.159185 229.888 0.0803994 230.063 0.0374753C230.238 -0.00544887 230.42 -0.0115759 230.598 0.0194904C230.775 0.0505566 230.945 0.11814 231.095 0.217961Z" fill="#FFCEC8"/>
<path d="M229.757 14.8505C229.698 14.8507 229.641 14.8317 229.594 14.7965C229.539 14.7534 229.503 14.6902 229.495 14.6207C229.486 14.5513 229.505 14.4812 229.548 14.4257L238.049 3.3905C238.07 3.36309 238.096 3.34011 238.126 3.32287C238.156 3.30563 238.189 3.29447 238.224 3.29003C238.258 3.28558 238.293 3.28793 238.326 3.29696C238.36 3.30598 238.391 3.3215 238.418 3.34262C238.446 3.36374 238.469 3.39005 238.486 3.42006C238.503 3.45006 238.515 3.48317 238.519 3.51748C238.523 3.5518 238.521 3.58666 238.512 3.62007C238.503 3.65347 238.487 3.68477 238.466 3.71218L229.965 14.7474C229.941 14.7796 229.909 14.8057 229.873 14.8236C229.837 14.8415 229.797 14.8507 229.757 14.8505Z" fill="#FF9C91"/>
<path d="M127.267 142.983C127.53 143.629 128.132 143.995 128.611 143.801C129.089 143.607 129.266 142.924 129.003 142.276C128.741 141.628 128.139 141.264 127.658 141.458C127.177 141.652 127.005 142.335 127.267 142.983Z" fill="#B4B3FF"/>
<path d="M129.345 145.684L127.543 146.421C126.625 146.792 125.598 146.784 124.687 146.398C123.775 146.013 123.054 145.282 122.681 144.366L121.576 141.647L130.308 138.102L131.413 140.82C131.746 141.643 131.776 142.558 131.496 143.401C131.216 144.244 130.645 144.959 129.885 145.419C129.712 145.521 129.532 145.61 129.345 145.684ZM122.293 141.944L123.189 144.154C123.509 144.935 124.124 145.557 124.902 145.885C125.679 146.213 126.554 146.221 127.336 145.905L129.139 145.169C129.919 144.849 130.542 144.233 130.87 143.456C131.198 142.679 131.205 141.804 130.89 141.021L129.993 138.811L122.293 141.944Z" fill="white"/>
<path d="M135.977 139.445C136.24 140.09 136.842 140.459 137.323 140.262C137.804 140.066 137.976 139.386 137.713 138.74C137.451 138.094 136.849 137.726 136.37 137.92C135.891 138.114 135.71 138.796 135.977 139.445Z" fill="#B4B3FF"/>
<path d="M140.375 141.21L138.573 141.947C137.655 142.318 136.628 142.311 135.716 141.925C134.805 141.54 134.083 140.808 133.711 139.892L132.606 137.173L141.325 133.632L142.43 136.351C142.765 137.174 142.795 138.089 142.515 138.932C142.235 139.775 141.664 140.491 140.903 140.95C140.734 141.05 140.557 141.137 140.375 141.21ZM133.323 137.47L134.219 139.68C134.539 140.461 135.154 141.083 135.932 141.411C136.709 141.739 137.584 141.747 138.366 141.431L140.169 140.695C140.949 140.375 141.572 139.759 141.9 138.982C142.228 138.205 142.235 137.33 141.92 136.547L141.023 134.337L133.323 137.47ZM140.23 146.765C140.631 147.886 140.578 149.119 140.081 150.201C139.585 151.283 138.686 152.128 137.575 152.555C136.464 152.983 135.23 152.959 134.136 152.489C133.043 152.02 132.176 151.141 131.722 150.04L140.23 146.765Z" fill="white"/>
<path d="M130.481 137.419L136.385 143.688L133.268 146.011L130.481 137.419Z" fill="#FFCEC8"/>
<path d="M133.411 146.247L133.433 146.232L136.547 143.909C136.578 143.886 136.604 143.856 136.623 143.823C136.642 143.789 136.654 143.751 136.657 143.712C136.661 143.674 136.656 143.635 136.644 143.599C136.631 143.562 136.61 143.529 136.584 143.501L130.69 137.23C130.639 137.182 130.572 137.155 130.502 137.155C130.432 137.155 130.365 137.182 130.314 137.23C130.263 137.278 130.232 137.343 130.228 137.413C130.223 137.483 130.246 137.552 130.29 137.605L135.982 143.653L133.114 145.79C133.053 145.831 133.012 145.894 132.997 145.965C132.983 146.037 132.998 146.111 133.039 146.172C133.08 146.232 133.143 146.274 133.215 146.288C133.286 146.302 133.36 146.287 133.421 146.247H133.411Z" fill="#FF7867"/>
<path d="M123.869 138.782C123.946 138.908 124.067 139.002 124.21 139.043C124.352 139.084 124.505 139.071 124.638 139.005L127.515 137.561C127.71 137.444 127.851 137.253 127.905 137.032C127.96 136.811 127.925 136.578 127.808 136.383C127.746 136.28 127.664 136.192 127.566 136.123C127.468 136.055 127.357 136.007 127.24 135.984C127.122 135.961 127.002 135.963 126.885 135.989C126.768 136.015 126.659 136.066 126.563 136.137L124.026 138.008C123.908 138.095 123.827 138.222 123.798 138.366C123.769 138.509 123.794 138.658 123.869 138.784V138.782ZM137.387 133.478C137.429 133.619 137.417 133.772 137.352 133.905C137.287 134.038 137.174 134.142 137.036 134.195L134.032 135.356C133.925 135.389 133.811 135.4 133.699 135.388C133.587 135.377 133.478 135.344 133.379 135.29C133.28 135.237 133.192 135.165 133.121 135.077C133.05 134.99 132.997 134.89 132.964 134.782C132.93 134.667 132.92 134.547 132.935 134.428C132.95 134.309 132.99 134.195 133.051 134.093C133.112 133.99 133.195 133.902 133.292 133.832C133.39 133.763 133.5 133.715 133.617 133.691L136.707 133.07C136.85 133.04 137 133.065 137.126 133.141C137.252 133.216 137.345 133.337 137.387 133.478Z" fill="#B4B3FF"/>
<path d="M122.315 142.175L141.171 134.519C141.232 134.495 141.288 134.459 141.335 134.414C141.382 134.368 141.42 134.313 141.445 134.253C141.471 134.192 141.484 134.127 141.484 134.062C141.484 133.996 141.471 133.931 141.446 133.871C141.422 133.81 141.386 133.754 141.34 133.707C141.294 133.66 141.239 133.623 141.179 133.598C141.119 133.572 141.054 133.559 140.988 133.559C140.923 133.559 140.858 133.573 140.797 133.598L121.941 141.254C121.88 141.278 121.824 141.314 121.777 141.36C121.73 141.405 121.693 141.46 121.667 141.52C121.641 141.581 121.628 141.646 121.628 141.712C121.628 141.777 121.641 141.842 121.666 141.903C121.69 141.964 121.726 142.019 121.772 142.066C121.818 142.113 121.873 142.15 121.933 142.176C121.993 142.201 122.058 142.214 122.124 142.214C122.189 142.214 122.254 142.201 122.315 142.175Z" fill="#FF9D5A"/>
<path d="M379.592 130.396C379.592 130.396 370.791 154.279 385.642 159.813L384.152 177.169L404.169 178.458L408.766 141.839C408.766 141.839 397.284 105.347 379.592 130.396Z" fill="#FFD3CF"/>
<path d="M384.152 177.169L364.775 250.396C364.775 250.396 372.66 240.051 392.523 247.604C412.385 255.157 418.689 239.668 418.689 239.668L408.621 217.411L404.157 178.458L394.168 175.966L384.152 177.169Z" fill="#545ED3"/>
<path d="M394.379 175.755L397.377 184.934L404.314 182.741L404.169 178.458L404.975 170.151L394.379 175.755ZM384.896 168.565L394.379 175.755L389.185 185.088L382.418 182.419L384.152 177.169L384.896 168.565Z" fill="#545ED3"/>
<path d="M432.585 254.985C427.892 249.583 420.972 241.831 418.691 239.66C418.691 239.66 409.851 253.75 387.908 245.748C385.912 244.984 383.827 244.479 381.703 244.245C377.131 243.813 369.993 244.348 364.76 250.384C364.76 250.384 364.5 251.975 364.247 254.98L432.585 254.985ZM338.847 63.7698C338.847 63.7698 348.816 53.8814 356.976 59.9785L346.432 69.5747C346.432 69.5747 340.6 72.3765 338.847 63.7698ZM490.712 131.376C490.712 131.376 491.773 128.92 487.932 123.54C484.895 118.772 481.656 117.234 476.406 118.101L478.675 131.199C478.675 131.199 482.776 138.102 490.712 131.376Z" fill="#FF7867"/>
<path d="M344.136 61.7858L345.293 68.153L352.571 65.9995L351.205 59.6347L344.136 61.7858ZM353.462 44.5601C352.669 44.2802 351.792 44.759 351.404 45.6921L349.177 49.4982L345.094 37.4808C344.919 36.9529 344.409 36.7294 343.969 37.0142C343.789 37.1572 343.653 37.3489 343.579 37.5665C343.504 37.7842 343.494 38.0186 343.549 38.242L345.405 46.9297L340.583 37.9081C340.539 37.8043 340.472 37.7124 340.385 37.6403C340.299 37.5682 340.197 37.518 340.087 37.4939C339.977 37.4698 339.863 37.4726 339.754 37.5019C339.646 37.5313 339.546 37.5864 339.463 37.6625C339.283 37.8377 339.163 38.0647 339.119 38.3118C339.075 38.5589 339.109 38.8136 339.218 39.0401L339.252 39.1211C339.23 39.099 343.672 48.1403 343.672 48.1403L338.839 40.6583C338.799 40.5879 338.746 40.5262 338.682 40.4768C338.618 40.4274 338.544 40.3914 338.466 40.3708C338.388 40.3502 338.306 40.3454 338.226 40.3569C338.146 40.3683 338.069 40.3956 338 40.4373C337.808 40.5697 337.67 40.7659 337.61 40.9908C337.549 41.2156 337.571 41.4546 337.671 41.665L341.644 49.9697L336.804 44.9358C336.509 44.6461 336.264 44.5773 335.964 44.8965C335.899 44.9624 335.848 45.0399 335.812 45.1249C335.742 45.2952 335.714 45.4797 335.731 45.6629C335.747 45.8462 335.807 46.0229 335.905 46.1783L344.141 61.7735L351.21 59.6224C351.21 59.6224 351.48 57.8471 351.611 54.8538C351.741 51.8604 353.462 44.5601 353.462 44.5601ZM486.317 127.528L482.044 132.39L476.917 126.794L481.366 122.042L486.317 127.528Z" fill="#FFCEC8"/>
<path d="M487.198 107.96C488.021 108.129 488.527 108.991 488.379 109.991L488.328 114.41L498.02 106.214C498.44 105.85 499.002 105.924 499.223 106.396C499.303 106.609 499.32 106.841 499.273 107.064C499.225 107.288 499.115 107.493 498.955 107.655L492.885 114.145L501.666 108.881C501.757 108.815 501.863 108.773 501.974 108.757C502.085 108.74 502.198 108.751 502.304 108.788C502.41 108.824 502.506 108.885 502.583 108.967C502.661 109.048 502.718 109.146 502.749 109.254C502.814 109.496 502.801 109.753 502.713 109.988C502.625 110.223 502.466 110.425 502.258 110.565L502.184 110.617C502.214 110.617 493.75 116.07 493.75 116.07L501.747 112.142C501.818 112.102 501.895 112.076 501.976 112.067C502.056 112.058 502.138 112.065 502.215 112.088C502.293 112.111 502.365 112.149 502.428 112.201C502.49 112.252 502.542 112.315 502.58 112.387C502.677 112.601 502.694 112.842 502.629 113.067C502.563 113.292 502.42 113.486 502.224 113.615L494.538 118.703L501.281 116.881C501.681 116.783 501.929 116.851 502.017 117.279C502.038 117.369 502.042 117.462 502.03 117.554C502.002 117.735 501.93 117.908 501.822 118.057C501.713 118.205 501.571 118.326 501.406 118.408L486.314 127.53L481.364 122.045C481.364 122.045 482.046 120.382 483.476 117.752C484.905 115.123 487.198 107.96 487.198 107.96Z" fill="#FFCEC8"/>
<path d="M379.592 130.396C379.592 130.396 376.441 125.564 379.523 119.697C379.523 119.697 384.314 109.244 399.216 113.313C414.119 117.382 410.563 130.526 410.563 130.526C410.563 130.526 415.199 124.493 424.13 128.562C433.061 132.631 431.325 144.302 431.325 144.302C431.325 144.302 429.056 152.189 443.2 152.683C443.2 152.683 450.967 152.069 453.189 158.122C453.189 158.122 458.879 166.286 450.599 175.288C444.88 181.508 451.139 186.247 455.559 188.583C458.707 190.245 460.914 193.373 461.125 196.931C461.337 200.489 459.984 204.276 453.759 205.496C453.759 205.496 464.61 219.886 453.147 233.244C444.88 242.87 434.942 243.756 434.942 243.756L408.987 220.318L404.987 170.171L407.806 147.433C407.806 147.433 400.302 144.751 399.008 135.781C398.622 133.119 397.375 130.602 395.15 129.095C393.814 128.188 391.543 127.572 388.795 127.653C385.547 127.786 382.383 128.728 379.592 130.396Z" fill="#FF9D5A"/>
<path d="M359.201 190.459C360.731 197.297 364.05 203.608 364.05 203.608C364.05 203.608 357.123 233.418 350.206 254.993H368.063C373.814 231.766 383.41 190.549 384.896 168.558L385.632 159.806C385.632 159.806 377.961 157.532 377.089 146.993C376.941 144.833 377.096 142.664 377.551 140.547L379.582 130.389L356.966 59.9711C356.966 59.9711 352.473 58.3553 345.639 64.4819C343.856 66.0805 341.052 66.1026 339.384 64.3862C339.191 64.1878 339.009 63.9796 338.837 63.7625L366.359 179.49C366.359 179.49 357.668 183.617 359.201 190.459ZM426.411 199.826L490.712 131.376C484.61 127.911 483.719 124.559 483.719 124.559C479.908 114 474.633 118.99 474.633 118.99L412.113 177.044L411.987 177.066L426.379 199.903L426.411 199.826Z" fill="#B4B3FF"/>
<path d="M427.182 254.985H454.063C436.592 243.024 415.295 223.093 415.295 223.093C414.102 216.497 426.195 199.905 427.018 198.783L420.771 172.523L404.977 170.141C400.947 182.024 401.569 202.255 406.099 224.539C408.098 234.391 419.249 247.412 427.182 254.985Z" fill="#B4B3FF"/>
<path d="M388.93 245.387C388.868 245.382 388.81 245.354 388.767 245.309C388.725 245.263 388.701 245.203 388.701 245.141C388.701 244.8 389.033 238.432 389.342 232.274C389.63 226.545 389.927 220.618 389.939 220.296C389.961 219.66 391.818 216.473 392.449 215.407L388.765 213.612C388.732 213.596 388.703 213.573 388.68 213.543C388.658 213.514 388.643 213.479 388.638 213.442C388.63 213.406 388.632 213.369 388.642 213.333C388.653 213.298 388.671 213.265 388.697 213.239L391.687 210.046L388.724 208.738C388.678 208.716 388.64 208.681 388.615 208.637C388.59 208.593 388.579 208.542 388.584 208.492L394.155 175.718C394.165 175.665 394.193 175.617 394.233 175.581C394.274 175.545 394.325 175.523 394.379 175.519C394.433 175.517 394.487 175.533 394.532 175.565C394.576 175.597 394.609 175.643 394.624 175.696L396.589 183.062L404.127 179.637C404.156 179.612 404.19 179.595 404.227 179.585C404.264 179.576 404.303 179.576 404.34 179.584C404.378 179.592 404.412 179.609 404.442 179.633C404.471 179.657 404.495 179.688 404.511 179.723C404.526 179.757 404.534 179.795 404.532 179.833C404.531 179.871 404.52 179.909 404.502 179.942C404.484 179.975 404.458 180.004 404.426 180.026C404.395 180.047 404.359 180.061 404.321 180.067L396.53 183.608C396.499 183.622 396.466 183.63 396.432 183.63C396.398 183.63 396.364 183.622 396.333 183.608C396.303 183.593 396.275 183.571 396.253 183.545C396.231 183.519 396.215 183.488 396.206 183.455L394.438 176.867L389.08 208.396L392.179 209.764C392.211 209.781 392.24 209.804 392.263 209.834C392.285 209.863 392.301 209.897 392.308 209.933C392.316 209.969 392.315 210.006 392.306 210.042C392.297 210.078 392.281 210.111 392.257 210.14L389.259 213.332L392.886 215.1C392.915 215.115 392.941 215.135 392.962 215.16C392.983 215.185 392.999 215.214 393.008 215.245C393.017 215.276 393.02 215.309 393.015 215.342C393.011 215.374 393 215.406 392.984 215.434C391.926 217.212 390.425 219.903 390.411 220.318C390.411 220.642 390.113 226.307 389.814 232.303C389.504 238.46 389.185 244.827 389.173 245.163C389.167 245.224 389.139 245.281 389.095 245.322C389.05 245.363 388.991 245.386 388.93 245.387Z" fill="white"/>
<path d="M404.262 150.792C404.017 153.623 403.666 155.904 406.497 156.147C409.328 156.39 414.269 154.505 414.512 151.673C414.605 150.327 414.165 148.998 413.288 147.973C412.41 146.948 411.165 146.309 409.821 146.193C408.476 146.077 407.14 146.495 406.1 147.355C405.061 148.215 404.401 149.449 404.262 150.792Z" fill="#FFD3CF"/>
<path d="M389.708 182.773C389.657 182.772 389.607 182.755 389.566 182.724L382.632 177.432C382.596 177.418 382.564 177.396 382.538 177.368C382.513 177.34 382.494 177.306 382.484 177.269C382.473 177.232 382.472 177.194 382.479 177.156C382.486 177.119 382.502 177.083 382.526 177.053C382.549 177.023 382.579 176.998 382.613 176.982C382.648 176.965 382.685 176.957 382.724 176.957C382.762 176.958 382.799 176.967 382.833 176.985C382.867 177.003 382.896 177.028 382.919 177.059L389.654 182.198L393.986 175.833C394.027 175.8 394.078 175.781 394.13 175.779C394.183 175.777 394.235 175.792 394.278 175.822C394.322 175.852 394.355 175.895 394.372 175.945C394.389 175.994 394.39 176.048 394.374 176.099L389.905 182.67C389.868 182.723 389.811 182.759 389.748 182.77L389.708 182.773Z" fill="white"/>
<path d="M385.642 159.813C385.642 159.813 393.836 161.184 400.172 156.992C400.172 156.992 398.661 162.691 385.387 163.131L385.642 159.813Z" fill="#FFB2A9"/>
<path d="M392.861 137.041C393.03 137.439 394.253 137.311 395.417 137.777C396.611 138.183 397.45 139.079 397.838 138.892C398.251 138.747 397.799 136.974 395.975 136.289C394.15 135.604 392.642 136.663 392.861 137.041ZM382.032 137.095C382.302 137.434 383.446 136.982 384.696 137.127C385.954 137.195 387.005 137.834 387.329 137.549C387.653 137.264 386.774 135.712 384.831 135.543C382.889 135.373 381.72 136.79 382.032 137.095Z" fill="#FF9D5A"/>
<path d="M383.105 142.9C382.923 143.749 383.213 144.533 383.753 144.648C384.293 144.763 384.875 144.157 385.057 143.315C385.239 142.472 384.949 141.679 384.409 141.564C383.869 141.448 383.287 142.048 383.105 142.9ZM393.205 144.849C393.023 145.701 393.313 146.485 393.85 146.6C394.388 146.716 394.973 146.109 395.154 145.264C395.336 144.42 395.046 143.629 394.506 143.516C393.966 143.403 393.384 143.995 393.205 144.849Z" fill="#454545"/>
<path d="M387.349 151.214C387.312 151.214 387.275 151.206 387.241 151.192C387.044 151.116 385.323 150.418 385.276 149.422C385.254 148.93 385.601 148.515 386.31 148.157C388.663 146.973 388.695 142.278 388.695 142.232C388.695 142.152 388.726 142.076 388.782 142.019C388.838 141.962 388.914 141.93 388.994 141.93C389.074 141.93 389.15 141.962 389.206 142.019C389.262 142.076 389.294 142.152 389.294 142.232C389.294 142.44 389.259 147.344 386.593 148.692C386.322 148.827 385.873 149.1 385.888 149.392C385.907 149.832 386.826 150.374 387.472 150.635C387.537 150.66 387.592 150.707 387.627 150.768C387.661 150.83 387.672 150.902 387.659 150.971C387.646 151.04 387.609 151.102 387.554 151.147C387.5 151.191 387.432 151.215 387.361 151.214H387.349Z" fill="#FF7867"/>
<path d="M395.26 150.342C394.412 150.34 393.575 150.139 392.819 149.754C392.063 149.37 391.407 148.813 390.905 148.129C390.404 147.444 390.07 146.652 389.93 145.815C389.791 144.978 389.85 144.12 390.104 143.31C390.402 142.352 390.96 141.496 391.717 140.838C392.473 140.179 393.397 139.742 394.386 139.577C395.375 139.413 396.391 139.525 397.32 139.903C398.249 140.281 399.055 140.91 399.648 141.718C400.241 142.527 400.598 143.485 400.679 144.484C400.76 145.484 400.562 146.487 400.107 147.38C399.653 148.274 398.959 149.024 398.103 149.547C397.247 150.07 396.263 150.346 395.26 150.342ZM395.26 139.973C394.207 139.977 393.183 140.316 392.335 140.941C391.488 141.566 390.861 142.445 390.546 143.45C390.155 144.702 390.278 146.058 390.887 147.22C391.496 148.382 392.542 149.254 393.794 149.645C395.047 150.036 396.403 149.913 397.565 149.304C398.727 148.695 399.599 147.649 399.99 146.396C400.183 145.776 400.252 145.123 400.193 144.476C400.134 143.828 399.948 143.199 399.646 142.624C399.343 142.048 398.931 141.538 398.431 141.122C397.931 140.707 397.354 140.394 396.733 140.201C396.251 140.049 395.749 139.972 395.243 139.973H395.26ZM382.646 148.584C382.097 148.584 381.55 148.501 381.025 148.339C379.828 147.966 378.796 147.189 378.107 146.141C377.417 145.093 377.113 143.838 377.245 142.591C377.377 141.343 377.938 140.18 378.831 139.3C379.725 138.419 380.896 137.876 382.146 137.762C383.395 137.649 384.645 137.972 385.683 138.676C386.721 139.381 387.482 140.424 387.837 141.627C388.192 142.831 388.119 144.12 387.63 145.275C387.141 146.43 386.266 147.38 385.156 147.963C384.382 148.371 383.521 148.585 382.646 148.584ZM382.646 138.214C381.464 138.216 380.321 138.64 379.425 139.411C378.528 140.182 377.937 141.248 377.759 142.417C377.581 143.586 377.828 144.78 378.454 145.783C379.08 146.786 380.044 147.531 381.173 147.884C381.852 148.095 382.569 148.156 383.275 148.064C383.98 147.972 384.658 147.728 385.261 147.351C385.863 146.973 386.378 146.469 386.768 145.875C387.159 145.28 387.416 144.608 387.524 143.905C387.631 143.201 387.585 142.483 387.389 141.799C387.193 141.115 386.852 140.482 386.389 139.941C385.926 139.401 385.352 138.967 384.706 138.669C384.06 138.371 383.358 138.216 382.646 138.214Z" fill="white"/>
<path d="M390.069 145.048H390.03L387.631 144.636C387.571 144.623 387.517 144.587 387.482 144.537C387.446 144.486 387.431 144.424 387.439 144.363C387.452 144.303 387.488 144.25 387.538 144.214C387.589 144.179 387.651 144.163 387.712 144.172L390.109 144.584C390.158 144.603 390.199 144.638 390.227 144.683C390.255 144.728 390.268 144.781 390.264 144.833C390.259 144.886 390.238 144.936 390.203 144.975C390.168 145.015 390.121 145.042 390.069 145.053V145.048ZM391.619 153.326C391.496 154.319 390.992 155.225 390.215 155.854C389.437 156.483 388.445 156.786 387.449 156.699C386.452 156.612 385.528 156.141 384.872 155.387C384.215 154.632 383.877 153.652 383.928 152.653L391.619 153.326Z" fill="white"/>
<path d="M389.91 127.481C389.91 127.481 390.683 132.13 378.987 133.694C378.987 133.694 375.699 126.202 379.348 120.154L389.91 127.481Z" fill="#FF9D5A"/>
<path d="M488.429 165.144C487.898 165.049 487.35 165.145 486.883 165.414C486.415 165.684 486.058 166.11 485.875 166.618L483.493 170.981L476.293 158.61C476.219 158.48 476.118 158.366 475.998 158.277C475.877 158.188 475.739 158.124 475.593 158.091C475.447 158.057 475.295 158.055 475.148 158.083C475 158.111 474.86 158.169 474.737 158.254C474.529 158.404 474.378 158.62 474.31 158.867C474.241 159.114 474.26 159.377 474.361 159.612L478.118 168.698L470.385 159.634C470.294 159.526 470.182 159.437 470.056 159.373C469.929 159.308 469.792 159.27 469.65 159.259C469.509 159.249 469.367 159.266 469.233 159.311C469.098 159.356 468.974 159.428 468.868 159.521C468.658 159.709 468.528 159.969 468.505 160.25C468.481 160.53 468.565 160.809 468.74 161.029L468.799 161.115C468.767 161.093 475.996 170.225 475.996 170.225L468.48 162.814C468.331 162.668 468.138 162.575 467.931 162.551C467.723 162.527 467.514 162.573 467.336 162.682C467.224 162.751 467.129 162.842 467.055 162.951C466.982 163.059 466.932 163.182 466.909 163.311C466.886 163.44 466.89 163.572 466.921 163.699C466.952 163.826 467.01 163.946 467.09 164.049L473.592 172.452L466.422 167.666C465.99 167.391 465.654 167.349 465.305 167.73C465.232 167.806 465.175 167.895 465.135 167.993C465.07 168.187 465.062 168.396 465.113 168.595C465.163 168.793 465.27 168.973 465.42 169.113L478.651 184.794L487.692 181.601C487.735 179.88 487.674 178.159 487.51 176.445C487.238 173.216 488.429 165.144 488.429 165.144Z" fill="#FFD3CF"/>
<path d="M541.731 86.044C541.731 86.044 535.428 116.355 553.518 118.887L553.545 128.324L564.794 136.137L580.109 126.293L583.635 127.486L578.557 90.135L541.731 86.044Z" fill="#FFCEC8"/>
<path d="M541.731 86.044C541.731 86.044 546.472 94.4616 557.024 88.9489C557.024 88.9489 560.771 87.4633 562.306 91.8538C562.846 93.4008 563.595 95.2032 565.071 96.0896C565.329 96.2564 565.62 96.3648 565.924 96.4072C566.228 96.4496 566.538 96.425 566.831 96.3352C567.241 96.1879 567.568 95.8809 567.934 95.6403C569.67 94.4837 572.216 95.0362 573.564 96.6225C576.346 99.9154 574.156 105.016 569.861 105.237C569.103 105.276 568.342 105.253 567.588 105.168C567.588 105.168 568.226 113.175 581.498 111.763L579.273 86.9771C579.273 86.9771 579.607 80.7229 574.117 83.4117L574.463 79.2373C574.463 79.2373 569.017 84.6542 558.959 80.0255C548.901 75.3968 543.555 71.9492 539.224 77.3735C534.892 82.7978 538.19 88.4897 541.107 89.5063L541.731 86.044Z" fill="#B4B3FF"/>
<path d="M553.51 118.892C553.51 118.892 564.214 119.029 569.471 113.32C569.471 113.32 566.849 120.959 553.51 123.034V118.892Z" fill="#FFB6AD"/>
<path d="M558.031 101.001C558.139 101.683 557.815 102.305 557.309 102.383C556.803 102.462 556.302 101.973 556.197 101.288C556.091 100.603 556.413 99.9841 556.919 99.9056C557.425 99.827 557.923 100.316 558.031 101.001Z" fill="#B4B3FF"/>
<path d="M557.063 104.404C556.181 104.402 555.328 104.085 554.659 103.51C553.989 102.935 553.547 102.14 553.412 101.268L552.96 98.393L562.183 96.9417L562.635 99.8172C562.711 100.298 562.692 100.789 562.578 101.262C562.464 101.735 562.259 102.181 561.972 102.574C561.686 102.968 561.325 103.301 560.91 103.554C560.495 103.808 560.034 103.978 559.553 104.053L557.645 104.353C557.453 104.384 557.258 104.402 557.063 104.404ZM553.584 98.8546L553.952 101.192C554.082 102.019 554.536 102.761 555.213 103.253C555.89 103.746 556.735 103.95 557.562 103.82L559.467 103.52C559.877 103.456 560.27 103.311 560.624 103.095C560.978 102.879 561.286 102.595 561.53 102.26C561.774 101.925 561.95 101.545 562.047 101.142C562.144 100.739 562.161 100.32 562.097 99.9105L561.729 97.5753L553.584 98.8546Z" fill="white"/>
<path d="M548.817 102.449C548.925 103.132 548.601 103.753 548.093 103.832C547.585 103.911 547.089 103.422 546.981 102.737C546.873 102.052 547.197 101.433 547.717 101.354C548.238 101.276 548.709 101.759 548.817 102.449Z" fill="#B4B3FF"/>
<path d="M545.409 106.238C544.528 106.236 543.676 105.919 543.007 105.345C542.338 104.772 541.895 103.978 541.758 103.108L541.306 100.232L550.529 98.7834L550.983 101.659C551.135 102.629 550.895 103.62 550.317 104.413C549.739 105.207 548.869 105.739 547.899 105.892L545.994 106.192C545.8 106.222 545.605 106.237 545.409 106.238ZM541.932 100.686L542.298 103.024C542.429 103.851 542.882 104.592 543.559 105.085C544.236 105.578 545.081 105.782 545.908 105.652L547.813 105.352C548.64 105.221 549.382 104.768 549.875 104.091C550.368 103.414 550.573 102.57 550.443 101.742L550.075 99.4071L541.932 100.686ZM552.307 109.354C552.551 110.501 553.23 111.509 554.202 112.164C555.174 112.82 556.363 113.073 557.517 112.87C558.672 112.667 559.703 112.024 560.393 111.076C561.083 110.128 561.378 108.949 561.216 107.788L552.307 109.354Z" fill="white"/>
<path d="M551.671 97.7202L549.861 106.069L553.697 106.45L551.671 97.7202Z" fill="#FFCEC8"/>
<path d="M553.697 106.722H553.67L549.834 106.342C549.796 106.337 549.759 106.325 549.726 106.306C549.692 106.287 549.663 106.262 549.64 106.231C549.618 106.2 549.603 106.164 549.595 106.126C549.587 106.089 549.586 106.05 549.594 106.012L551.403 97.6637C551.424 97.5978 551.468 97.5419 551.528 97.5072C551.587 97.4726 551.658 97.4615 551.725 97.4764C551.792 97.4912 551.852 97.5308 551.891 97.5873C551.931 97.6438 551.948 97.7132 551.939 97.7815L550.205 105.828L553.736 106.177C553.808 106.181 553.876 106.213 553.925 106.266C553.973 106.32 553.999 106.391 553.995 106.463C553.991 106.535 553.959 106.603 553.906 106.652C553.852 106.7 553.781 106.726 553.709 106.722H553.697Z" fill="#FF7867"/>
<path d="M558.799 94.884C558.798 95.031 558.743 95.1724 558.642 95.2802C558.542 95.388 558.406 95.4543 558.259 95.466L555.067 95.7115C554.841 95.7115 554.625 95.622 554.466 95.4627C554.307 95.3033 554.217 95.0872 554.217 94.8619C554.217 94.7433 554.242 94.6259 554.289 94.5174C554.337 94.4088 554.407 94.3114 554.495 94.2314C554.582 94.1515 554.686 94.0907 554.798 94.0529C554.911 94.0152 555.03 94.0013 555.148 94.0123L558.261 94.3045C558.407 94.3167 558.543 94.3829 558.643 94.4901C558.742 94.5973 558.798 94.7378 558.799 94.884ZM545.682 97.9583C545.718 98.1009 545.807 98.2246 545.93 98.3047C546.053 98.3848 546.202 98.4154 546.347 98.3905L549.493 97.8306C549.601 97.8031 549.703 97.7545 549.793 97.6875C549.883 97.6205 549.958 97.5365 550.016 97.4403C550.073 97.344 550.111 97.2375 550.127 97.1266C550.143 97.0158 550.137 96.9029 550.109 96.7944C550.079 96.6797 550.026 96.5724 549.953 96.4793C549.88 96.3863 549.788 96.3095 549.683 96.2538C549.578 96.1982 549.463 96.1649 549.345 96.1561C549.227 96.1472 549.108 96.1631 548.997 96.2026L546.05 97.256C545.913 97.3048 545.8 97.4028 545.732 97.5309C545.664 97.659 545.646 97.8079 545.682 97.9485V97.9583Z" fill="#B4B3FF"/>
<path d="M561.827 97.7815L541.883 100.917C541.819 100.928 541.754 100.925 541.69 100.91C541.627 100.895 541.568 100.868 541.515 100.83C541.463 100.792 541.418 100.744 541.385 100.688C541.351 100.633 541.328 100.571 541.318 100.507C541.308 100.443 541.31 100.377 541.325 100.314C541.341 100.251 541.368 100.191 541.407 100.139C541.445 100.086 541.493 100.042 541.549 100.008C541.605 99.9742 541.667 99.952 541.731 99.9424L561.675 96.8067C561.739 96.7962 561.805 96.7986 561.868 96.8137C561.931 96.8289 561.991 96.8564 562.044 96.8948C562.096 96.9332 562.14 96.9816 562.174 97.0373C562.208 97.093 562.23 97.1549 562.24 97.2192C562.25 97.2833 562.247 97.3487 562.232 97.4117C562.216 97.4747 562.189 97.534 562.15 97.5863C562.112 97.6386 562.064 97.6828 562.008 97.7163C561.953 97.7498 561.891 97.772 561.827 97.7815Z" fill="#FFA680"/>
<path d="M560.943 238.175C561.117 238.905 561.193 239.654 561.171 240.404V240.421L562.667 254.993H596.033L590.355 197.631L590.328 197.359L590.267 196.728L590.238 196.448L590.188 195.956L590.147 195.537L590.112 195.183L590.088 194.937V194.913L590.051 194.54L590.031 194.351L589.99 193.904L589.975 193.769L589.889 192.897L589.874 192.745L583.067 123.99L565.368 134.735L553.512 127.096L553.544 123.99L549.574 127.28L560.81 236.873L560.943 238.175Z" fill="#FF7867"/>
<path d="M511.115 206.682L492.699 176.256L472.266 186.815L493.153 225.754C493.153 225.754 494.823 228.777 494.963 229.082C500.497 241.197 515.368 242.194 525.244 233.256C525.546 232.984 525.853 232.687 526.158 232.397L511.425 206.388L511.115 206.682Z" fill="#B4B3FF"/>
<path d="M526.244 254.985H562.696C560.486 231.869 550.365 127.103 549.572 127.265C522.136 132.854 505.264 148.628 499.768 171.256C496.692 183.924 497.04 219.552 497.092 223.82L526.126 232.564C526.212 227.633 525.534 220.696 525.937 213.865L526.244 254.985Z" fill="#B4B3FF"/>
<path d="M525.937 226.747C525.865 226.747 525.797 226.719 525.746 226.668C525.695 226.618 525.665 226.55 525.664 226.479L524.223 163.98C524.223 163.908 524.251 163.839 524.303 163.788C524.354 163.737 524.423 163.708 524.495 163.708C524.568 163.708 524.637 163.737 524.688 163.788C524.739 163.839 524.768 163.908 524.768 163.98L526.209 226.479C526.21 226.515 526.204 226.55 526.191 226.584C526.178 226.617 526.159 226.648 526.135 226.674C526.11 226.7 526.08 226.721 526.048 226.735C526.015 226.75 525.98 226.758 525.944 226.759L525.937 226.747Z" fill="#333333"/>
<path d="M637.132 254.985C637.23 251.464 637.327 247.944 637.424 244.426C641.39 244.367 645.235 243.051 648.407 240.669C648.508 240.596 648.606 240.52 648.702 240.444C650.811 238.761 652.462 236.574 653.503 234.085C654.544 231.596 654.94 228.884 654.657 226.201L650.539 185.739C650.058 181.897 649.32 178.093 648.329 174.35C642.959 154.333 630.467 138.521 610.658 132.432L586.727 125.087L583.065 123.994L595.94 254.985H637.132Z" fill="#B4B3FF"/>
<path d="M575.45 253.777C575.369 253.777 575.29 253.748 575.229 253.694C575.167 253.641 575.126 253.568 575.114 253.487C574.972 252.527 574.915 251.614 574.868 250.73C574.839 250.209 574.807 249.669 574.756 249.121C574.62 247.43 574.449 245.708 574.282 244.046C574.115 242.383 573.943 240.655 573.808 238.958C573.773 238.437 573.746 237.912 573.722 237.404C573.679 235.848 573.528 234.297 573.27 232.763C573.061 231.51 572.43 230.511 571.762 229.45C571.605 229.205 571.443 228.944 571.286 228.684C571.116 228.454 571 228.19 570.946 227.909C570.891 227.629 570.9 227.34 570.972 227.063C571.128 226.58 571.345 226.117 571.617 225.688C571.861 225.312 572.055 224.906 572.194 224.48C572.381 223.743 571.681 223.314 570.746 222.847C570.424 222.703 570.137 222.493 569.902 222.231C569.667 221.968 569.489 221.66 569.38 221.325C569.305 221.042 569.291 220.747 569.339 220.458C569.388 220.17 569.497 219.895 569.66 219.653C569.673 219.63 569.689 219.609 569.707 219.591C569.814 219.456 569.885 219.297 569.913 219.127C569.946 218.991 569.992 218.859 570.051 218.732C570.063 218.706 570.078 218.683 570.097 218.663C571.003 217.605 571.571 216.735 571.905 215.854C570.564 199.1 569.095 182.115 567.676 165.69C566.802 155.575 565.896 145.117 565.032 134.811C565.028 134.766 565.033 134.721 565.046 134.679C565.06 134.636 565.081 134.596 565.11 134.562C565.139 134.528 565.174 134.499 565.214 134.479C565.254 134.458 565.298 134.445 565.342 134.442C565.387 134.438 565.432 134.443 565.475 134.456C565.517 134.47 565.557 134.491 565.591 134.52C565.626 134.549 565.654 134.584 565.675 134.624C565.695 134.664 565.708 134.708 565.712 134.752C566.576 145.065 567.482 155.516 568.356 165.631C569.778 182.083 571.249 199.097 572.592 215.878C572.597 215.927 572.59 215.977 572.573 216.023C572.207 217.005 571.612 217.939 570.645 219.071C570.615 219.151 570.591 219.233 570.571 219.316C570.518 219.587 570.397 219.841 570.22 220.053C570.114 220.213 570.043 220.393 570.012 220.582C569.981 220.771 569.99 220.965 570.038 221.15C570.123 221.393 570.256 221.615 570.43 221.803C570.604 221.992 570.815 222.142 571.05 222.246C571.902 222.673 573.191 223.316 572.855 224.667C572.699 225.151 572.482 225.613 572.209 226.042C571.966 226.418 571.772 226.824 571.632 227.25C571.584 227.434 571.579 227.627 571.619 227.813C571.658 227.999 571.74 228.174 571.858 228.323C572.01 228.569 572.172 228.836 572.329 229.084C573.005 230.152 573.702 231.26 573.933 232.642C574.195 234.205 574.35 235.783 574.395 237.367C574.419 237.873 574.444 238.396 574.478 238.906C574.613 240.593 574.785 242.312 574.952 243.977C575.119 245.642 575.291 247.366 575.426 249.06C575.477 249.615 575.509 250.16 575.541 250.686C575.595 251.597 575.644 252.456 575.787 253.387C575.793 253.431 575.791 253.476 575.78 253.52C575.77 253.563 575.75 253.604 575.724 253.64C575.697 253.676 575.663 253.707 575.625 253.73C575.586 253.753 575.544 253.768 575.5 253.775L575.45 253.777Z" fill="white"/>
<path d="M557.572 139.617C557.518 139.617 557.465 139.604 557.417 139.58C557.369 139.555 557.328 139.52 557.297 139.477L549.404 128.643C549.351 128.57 549.329 128.478 549.343 128.388C549.357 128.299 549.406 128.219 549.479 128.165C549.553 128.112 549.644 128.09 549.734 128.104C549.823 128.118 549.904 128.167 549.957 128.24L557.667 138.826L565.186 134.485C565.238 134.455 565.297 134.44 565.357 134.44C565.417 134.44 565.475 134.455 565.528 134.485L571.686 138.043L583.424 129.502C583.46 129.476 583.501 129.457 583.545 129.446C583.588 129.436 583.633 129.434 583.678 129.441C583.722 129.448 583.765 129.463 583.803 129.487C583.841 129.51 583.875 129.541 583.901 129.577C583.928 129.613 583.947 129.655 583.957 129.698C583.968 129.742 583.97 129.787 583.963 129.831C583.956 129.876 583.94 129.918 583.917 129.957C583.893 129.995 583.862 130.028 583.826 130.055L571.909 138.725C571.856 138.764 571.792 138.786 571.726 138.789C571.66 138.793 571.594 138.777 571.536 138.745L565.356 135.175L557.743 139.572C557.691 139.601 557.632 139.616 557.572 139.617Z" fill="white"/>
<path d="M563.129 146.971C563.967 146.971 564.646 146.292 564.646 145.453C564.646 144.615 563.967 143.936 563.129 143.936C562.291 143.936 561.611 144.615 561.611 145.453C561.611 146.292 562.291 146.971 563.129 146.971Z" fill="white"/>
<path d="M565.655 180.604C566.493 180.604 567.173 179.925 567.173 179.087C567.173 178.249 566.493 177.569 565.655 177.569C564.817 177.569 564.138 178.249 564.138 179.087C564.138 179.925 564.817 180.604 565.655 180.604Z" fill="white"/>
<path d="M569.7 211.031C569.7 211.332 569.61 211.626 569.443 211.876C569.276 212.126 569.039 212.321 568.761 212.436C568.483 212.551 568.177 212.581 567.882 212.522C567.587 212.463 567.316 212.318 567.104 212.105C566.892 211.892 566.747 211.621 566.689 211.326C566.63 211.031 566.661 210.725 566.776 210.448C566.892 210.17 567.087 209.933 567.337 209.766C567.587 209.599 567.881 209.511 568.182 209.511C568.382 209.511 568.579 209.55 568.763 209.627C568.948 209.703 569.115 209.815 569.256 209.956C569.397 210.098 569.509 210.265 569.585 210.45C569.661 210.634 569.7 210.832 569.7 211.031ZM573.248 248.495C573.248 248.796 573.159 249.09 572.992 249.34C572.825 249.59 572.587 249.785 572.31 249.9C572.032 250.015 571.726 250.045 571.431 249.986C571.137 249.927 570.866 249.783 570.653 249.57C570.441 249.358 570.296 249.087 570.237 248.792C570.178 248.497 570.209 248.191 570.324 247.914C570.439 247.636 570.633 247.398 570.883 247.231C571.133 247.064 571.427 246.975 571.728 246.975C572.131 246.975 572.518 247.135 572.803 247.42C573.088 247.706 573.248 248.092 573.248 248.495Z" fill="white"/>
<path d="M476.583 190.517C476.334 190.265 476.165 189.945 476.098 189.596C476.031 189.248 476.069 188.888 476.207 188.561C476.345 188.235 476.576 187.956 476.873 187.761C477.169 187.566 477.516 187.463 477.871 187.466C478.225 187.468 478.571 187.576 478.865 187.775C479.158 187.974 479.386 188.255 479.519 188.584C479.653 188.912 479.686 189.273 479.614 189.62C479.542 189.968 479.369 190.286 479.117 190.535C478.778 190.868 478.321 191.053 477.846 191.05C477.371 191.046 476.917 190.855 476.583 190.517ZM478.746 188.386C478.572 188.212 478.35 188.093 478.109 188.045C477.867 187.997 477.617 188.022 477.389 188.116C477.162 188.21 476.967 188.37 476.831 188.575C476.694 188.779 476.621 189.02 476.621 189.266C476.621 189.513 476.694 189.753 476.831 189.958C476.967 190.163 477.162 190.322 477.389 190.417C477.617 190.511 477.867 190.535 478.109 190.487C478.35 190.439 478.572 190.321 478.746 190.147C478.862 190.031 478.954 189.894 479.017 189.743C479.08 189.592 479.113 189.43 479.113 189.267C479.113 189.103 479.081 188.941 479.019 188.79C478.956 188.639 478.864 188.502 478.749 188.386H478.746ZM477.378 196.931C477.36 196.913 477.345 196.892 477.332 196.87C477.298 196.806 477.29 196.731 477.311 196.662C477.331 196.592 477.379 196.534 477.442 196.499L495.029 186.967C495.094 186.932 495.17 186.925 495.241 186.947C495.311 186.968 495.37 187.017 495.405 187.082C495.439 187.147 495.446 187.223 495.425 187.294C495.403 187.364 495.354 187.423 495.289 187.458L477.703 196.993C477.649 197.019 477.589 197.028 477.53 197.017C477.472 197.006 477.418 196.976 477.378 196.931Z" fill="#333333"/>
<path d="M612.222 247.862L578.574 252.427L574.81 229.178L614.415 221.278L612.222 247.862Z" fill="#B4B3FF"/>
<path d="M584.546 227.508C584.483 227.507 584.422 227.486 584.373 227.446C584.325 227.406 584.291 227.351 584.278 227.289C584.271 227.254 584.271 227.218 584.278 227.182C584.285 227.147 584.299 227.113 584.319 227.083C584.339 227.053 584.365 227.028 584.395 227.008C584.425 226.988 584.459 226.974 584.494 226.968L622.592 219.355L612.576 159.285C612.57 159.25 612.571 159.214 612.579 159.179C612.587 159.144 612.602 159.111 612.622 159.082C612.643 159.053 612.669 159.028 612.7 159.009C612.73 158.99 612.764 158.977 612.799 158.971C612.834 158.965 612.871 158.966 612.905 158.974C612.94 158.982 612.973 158.997 613.003 159.018C613.032 159.039 613.057 159.065 613.076 159.095C613.095 159.126 613.107 159.159 613.113 159.195L623.181 219.54C623.193 219.609 623.178 219.681 623.137 219.74C623.097 219.798 623.035 219.838 622.965 219.851L584.607 227.503L584.546 227.508ZM578.812 252.689C578.743 252.689 578.676 252.663 578.626 252.616C578.575 252.569 578.544 252.504 578.54 252.435C578.535 252.366 578.557 252.298 578.6 252.244C578.644 252.191 578.707 252.156 578.775 252.147L637.377 244.154C637.445 244.151 637.512 244.174 637.565 244.218C637.617 244.262 637.651 244.324 637.661 244.392C637.67 244.46 637.653 244.528 637.614 244.585C637.576 244.641 637.517 244.681 637.45 244.697L578.841 252.687L578.812 252.689ZM582.25 248.537C582.123 248.536 581.996 248.522 581.872 248.495C581.525 248.421 581.208 248.245 580.962 247.991C580.715 247.736 580.55 247.414 580.486 247.065C580.423 246.716 580.465 246.357 580.606 246.032C580.747 245.707 580.982 245.431 581.28 245.239C581.477 245.11 581.697 245.022 581.929 244.98C582.16 244.938 582.398 244.942 582.628 244.994C583.059 245.088 583.44 245.339 583.698 245.697C583.956 246.055 584.073 246.496 584.026 246.935C583.979 247.374 583.772 247.78 583.444 248.075C583.116 248.371 582.691 248.535 582.25 248.537ZM582.25 245.497C581.95 245.508 581.664 245.627 581.445 245.832C581.226 246.037 581.088 246.314 581.056 246.612C581.025 246.91 581.101 247.21 581.273 247.456C581.444 247.703 581.699 247.879 581.989 247.953C582.311 248.02 582.647 247.957 582.923 247.778C583.199 247.599 583.393 247.319 583.463 246.997C583.53 246.675 583.467 246.34 583.288 246.064C583.109 245.788 582.829 245.594 582.508 245.524C582.422 245.506 582.335 245.497 582.247 245.497H582.25Z" fill="#333333"/>
<path d="M589.047 251.302C588.982 251.302 588.919 251.278 588.869 251.236C588.82 251.194 588.787 251.135 588.777 251.071L585.506 230.459C585.5 230.424 585.502 230.388 585.51 230.353C585.518 230.318 585.533 230.285 585.555 230.256C585.576 230.227 585.602 230.202 585.633 230.183C585.663 230.164 585.698 230.152 585.733 230.146C585.768 230.141 585.805 230.142 585.84 230.15C585.875 230.159 585.907 230.174 585.937 230.195C585.966 230.216 585.99 230.243 586.009 230.273C586.028 230.304 586.04 230.338 586.046 230.373L589.317 250.985C589.328 251.057 589.311 251.13 589.269 251.189C589.226 251.248 589.162 251.287 589.091 251.3L589.047 251.302Z" fill="#333333"/>
<path d="M552.496 250.673L554.57 247.992L554.406 254.131C554.404 254.295 554.44 254.459 554.511 254.607C554.582 254.756 554.686 254.886 554.816 254.988H556.159C556.354 254.837 556.49 254.623 556.545 254.384L557.397 250.366L560.997 245.612L557.765 250.074L557.949 255H560.086L560.987 251.268L563.545 247.854C563.57 247.821 563.605 247.796 563.645 247.784C563.685 247.772 563.727 247.774 563.766 247.788C563.793 247.798 563.817 247.813 563.836 247.833C563.856 247.853 563.871 247.877 563.881 247.904C563.89 247.93 563.894 247.958 563.892 247.986C563.889 248.014 563.881 248.041 563.867 248.066L561.984 251.388L561.203 255H563.874L565.191 252.625L566.868 249.829L569.488 248.372C573.591 249.888 575.752 247.508 575.752 247.508L577.817 247.818L575.678 234.442C574.322 234.78 572.987 235.195 571.678 235.685L560.559 239.717L555.01 243.046C554.435 243.393 553.974 243.9 553.684 244.505L551.13 249.838C551.047 250.018 551.033 250.221 551.09 250.41C551.147 250.6 551.271 250.761 551.439 250.865C551.608 250.969 551.808 251.007 552.002 250.973C552.197 250.939 552.372 250.835 552.496 250.681V250.673Z" fill="#FFCEC8"/>
<path d="M554.779 248.174H554.762C554.744 248.171 554.727 248.165 554.711 248.156C554.696 248.147 554.682 248.135 554.671 248.121C554.66 248.106 554.652 248.09 554.648 248.072C554.643 248.055 554.642 248.037 554.644 248.019L554.688 247.682C554.753 247.198 554.982 246.751 555.337 246.415L559.46 242.536C559.485 242.51 559.52 242.496 559.557 242.496C559.593 242.496 559.628 242.51 559.654 242.536C559.667 242.548 559.677 242.563 559.684 242.579C559.691 242.596 559.694 242.614 559.694 242.631C559.694 242.649 559.691 242.667 559.684 242.683C559.677 242.7 559.667 242.715 559.654 242.727L555.533 246.609C555.223 246.901 555.023 247.29 554.966 247.712L554.922 248.051C554.921 248.068 554.916 248.085 554.908 248.101C554.9 248.116 554.889 248.13 554.876 248.142C554.863 248.153 554.847 248.162 554.831 248.167C554.814 248.173 554.797 248.175 554.779 248.174ZM557.834 250.249C557.819 250.252 557.803 250.252 557.787 250.249C557.77 250.243 557.755 250.234 557.741 250.222C557.728 250.21 557.717 250.195 557.709 250.179C557.702 250.162 557.698 250.145 557.697 250.127C557.697 250.109 557.7 250.091 557.706 250.074L557.837 249.721C557.841 249.707 557.848 249.694 557.859 249.684L560.906 245.843C560.916 245.826 560.929 245.812 560.946 245.801C560.962 245.79 560.98 245.782 560.999 245.779C561.018 245.775 561.038 245.776 561.057 245.781C561.076 245.785 561.094 245.794 561.109 245.806C561.125 245.818 561.137 245.834 561.146 245.851C561.155 245.868 561.16 245.888 561.161 245.907C561.162 245.927 561.159 245.946 561.152 245.964C561.145 245.983 561.134 245.999 561.12 246.013L558.085 249.829L557.962 250.16C557.952 250.186 557.935 250.209 557.912 250.225C557.889 250.24 557.862 250.249 557.834 250.249Z" fill="#FF7867"/>
<path d="M517.88 219.483C517.824 219.483 517.769 219.468 517.72 219.439C517.671 219.411 517.631 219.37 517.603 219.321L498.393 186.193C498.372 186.157 498.358 186.116 498.353 186.074C498.347 186.032 498.35 185.99 498.361 185.949C498.372 185.908 498.391 185.87 498.417 185.837C498.442 185.803 498.474 185.775 498.511 185.754C498.548 185.733 498.588 185.719 498.63 185.713C498.672 185.708 498.714 185.711 498.755 185.722C498.796 185.733 498.834 185.751 498.868 185.777C498.901 185.803 498.929 185.835 498.951 185.872L518.17 218.999C518.212 219.073 518.224 219.16 518.202 219.243C518.181 219.325 518.128 219.395 518.055 219.439C518.002 219.469 517.941 219.485 517.88 219.483Z" fill="#333333"/>
</svg>
