<svg width="20" height="11" viewBox="0 0 20 11" fill="none" xmlns="http://www.w3.org/2000/svg">
<path fill-rule="evenodd" clip-rule="evenodd" d="M0.292467 0.36652C-0.0975323 0.77152 -0.0975323 1.42652 0.292467 1.83052L8.55647 10.3935C8.73863 10.5852 8.95788 10.7378 9.20087 10.8421C9.44387 10.9464 9.70553 11.0002 9.96997 11.0002C10.2344 11.0002 10.4961 10.9464 10.7391 10.8421C10.9821 10.7378 11.2013 10.5852 11.3835 10.3935L19.7085 1.76852C19.8945 1.57277 19.9991 1.31355 20.001 1.0435C20.0028 0.773443 19.9018 0.512807 19.7185 0.31452C19.6279 0.216291 19.5182 0.137696 19.396 0.0836001C19.2739 0.0295044 19.1419 0.00106027 19.0084 2.90802e-05C18.8748 -0.00100211 18.7424 0.0254016 18.6194 0.0776052C18.4965 0.129809 18.3855 0.206701 18.2935 0.30352L10.6765 8.19752C10.5854 8.29344 10.4757 8.36982 10.3542 8.42201C10.2326 8.47421 10.1017 8.50112 9.96947 8.50112C9.83719 8.50112 9.7063 8.47421 9.58475 8.42201C9.46321 8.36982 9.35355 8.29344 9.26247 8.19752L1.70547 0.36652C1.61447 0.27063 1.5049 0.194268 1.38344 0.142085C1.26198 0.089903 1.13116 0.0629923 0.998968 0.0629923C0.866772 0.0629923 0.735958 0.089903 0.614496 0.142085C0.493034 0.194268 0.383467 0.27063 0.292467 0.36652Z" fill="white"/>
</svg>
