<svg width="20" height="11" viewBox="0 0 20 11" fill="none" xmlns="http://www.w3.org/2000/svg">
<path fill-rule="evenodd" clip-rule="evenodd" d="M19.7085 10.6337C20.0985 10.2287 20.0985 9.57372 19.7085 9.16972L11.4445 0.606725C11.2623 0.415046 11.0431 0.262418 10.8001 0.158124C10.5571 0.0538301 10.2954 4.76837e-05 10.031 4.76837e-05C9.76658 4.76837e-05 9.50491 0.0538301 9.26191 0.158124C9.01892 0.262418 8.79967 0.415046 8.61751 0.606725L0.292509 9.23172C0.106456 9.42747 0.00188248 9.68669 2.51689e-05 9.95675C-0.00183215 10.2268 0.0991663 10.4874 0.282509 10.6857C0.373049 10.784 0.482791 10.8625 0.604938 10.9166C0.727085 10.9707 0.859038 10.9992 0.992624 11.0002C1.12621 11.0012 1.25859 10.9748 1.38155 10.9226C1.50452 10.8704 1.61546 10.7935 1.70751 10.6967L9.32451 2.80272C9.4156 2.70681 9.52525 2.63043 9.64679 2.57823C9.76834 2.52604 9.89923 2.49912 10.0315 2.49912C10.1638 2.49912 10.2947 2.52604 10.4162 2.57823C10.5378 2.63043 10.6474 2.70681 10.7385 2.80272L18.2955 10.6337C18.3865 10.7296 18.4961 10.806 18.6175 10.8582C18.739 10.9103 18.8698 10.9373 19.002 10.9373C19.1342 10.9373 19.265 10.9103 19.3865 10.8582C19.5079 10.806 19.6175 10.7296 19.7085 10.6337Z" fill="white"/>
</svg>
